<svg width="15" height="15" viewBox="0 0 15 15" fill="none" xmlns="http://www.w3.org/2000/svg">
<path d="M12.8088 4.98001L6.84625 0.605007C6.38056 0.263998 5.82951 0.0586288 5.25423 0.0116719C4.67894 -0.035285 4.10189 0.0780053 3.58706 0.338981C3.07223 0.599956 2.63974 0.998419 2.33754 1.49019C2.03534 1.98195 1.87524 2.54781 1.875 3.12501V11.875C1.8751 12.4525 2.03521 13.0186 2.33755 13.5106C2.63989 14.0026 3.07263 14.4012 3.58776 14.6621C4.10289 14.9231 4.68026 15.0362 5.25578 14.989C5.8313 14.9417 6.38247 14.7359 6.84812 14.3944L12.8106 10.0194C13.2064 9.72913 13.5283 9.34973 13.7501 8.91192C13.972 8.47411 14.0876 7.99019 14.0876 7.49938C14.0876 7.00857 13.972 6.52466 13.7501 6.08684C13.5283 5.64903 13.2064 5.26963 12.8106 4.97938L12.8088 4.98001ZM12.0687 9.01126L6.10625 13.3863C5.82688 13.5904 5.49648 13.7133 5.15161 13.7412C4.80674 13.7692 4.46085 13.7012 4.15223 13.5448C3.84361 13.3883 3.5843 13.1495 3.403 12.8548C3.2217 12.5601 3.12549 12.221 3.125 11.875V3.12501C3.12153 2.77835 3.21593 2.43775 3.39736 2.14233C3.57879 1.84692 3.83987 1.60869 4.15062 1.45501C4.41493 1.32056 4.70721 1.25033 5.00375 1.25001C5.40118 1.25153 5.78764 1.38056 6.10625 1.61813L12.0687 5.99313C12.3059 6.16732 12.4988 6.39488 12.6317 6.65742C12.7646 6.91997 12.8339 7.21011 12.8339 7.50438C12.8339 7.79866 12.7646 8.0888 12.6317 8.35134C12.4988 8.61388 12.3059 8.84145 12.0687 9.01563V9.01126Z" fill="#8D0019"/>
</svg>
